<?xml version="1.0" encoding="UTF-8"?>
<svg width="18px" height="18px" viewBox="0 0 18 18" version="1.1" xmlns="http://www.w3.org/2000/svg" xmlns:xlink="http://www.w3.org/1999/xlink">
    <!-- Generator: Sketch 40.3 (33839) - http://www.bohemiancoding.com/sketch -->
    <title>Shape</title>
    <desc>Created with Sketch.</desc>
    <defs></defs>
    <g id="Page-1" stroke="none" stroke-width="1" fill="#000000" fill-rule="evenodd">
        <path d="M5.31,7.29 L4.05,8.55 L8.1,12.6 L17.1,3.6 L15.84,2.34 L8.1,10.08 L5.31,7.29 L5.31,7.29 Z M16.2,9 C16.2,12.96 12.96,16.2 9,16.2 C5.04,16.2 1.8,12.96 1.8,9 C1.8,5.04 5.04,1.8 9,1.8 C9.72,1.8 10.35,1.89 10.98,2.07 L12.4200352,0.63 C11.34,0.27 10.17,-2.84217094e-14 9,-2.84217094e-14 C4.05,-2.84217094e-14 0,4.05 0,9 C0,13.95 4.05,18 9,18 C13.95,18 18,13.95 18,9 L16.2,9 L16.2,9 Z" id="Shape" fill="#000000"></path>
    </g>
</svg>
