<svg xmlns="http://www.w3.org/2000/svg" width="20" height="20" viewBox="0 0 20 20">
  <path fill="#FFFFFF" fill-rule="evenodd" d="M1301.35938,45.015625 L1304.73438,45.015625 C1304.92188,44.1406206 1305.01562,43.4687523 1305.01562,43 C1305.01562,42.5312477 1304.92188,41.8593794 1304.73438,40.984375 L1301.35938,40.984375 C1301.45313,41.6406283 1301.5,42.3124966 1301.5,43 C1301.5,43.6875034 1301.45313,44.3593717 1301.35938,45.015625 L1301.35938,45.015625 Z M1299.57812,50.546875 C1301.48438,49.9218719 1302.93749,48.7343837 1303.9375,46.984375 L1300.98438,46.984375 C1300.67187,48.2343812 1300.20313,49.4218694 1299.57812,50.546875 L1299.57812,50.546875 Z M1299.34375,45.015625 C1299.4375,44.3593717 1299.48438,43.6875034 1299.48438,43 C1299.48438,42.3124966 1299.4375,41.6406283 1299.34375,40.984375 L1294.65625,40.984375 C1294.5625,41.6406283 1294.51562,42.3124966 1294.51562,43 C1294.51562,43.6875034 1294.5625,44.3593717 1294.65625,45.015625 L1299.34375,45.015625 Z M1297,50.96875 C1297.875,49.6874936 1298.51562,48.3593819 1298.92188,46.984375 L1295.07812,46.984375 C1295.48438,48.3593819 1296.125,49.6874936 1297,50.96875 L1297,50.96875 Z M1293.01562,39.015625 C1293.32813,37.7656188 1293.79687,36.5781306 1294.42188,35.453125 C1292.51562,36.0781281 1291.06251,37.2656163 1290.0625,39.015625 L1293.01562,39.015625 Z M1290.0625,46.984375 C1291.06251,48.7343837 1292.51562,49.9218719 1294.42188,50.546875 C1293.79687,49.4218694 1293.32813,48.2343812 1293.01562,46.984375 L1290.0625,46.984375 Z M1289.26562,45.015625 L1292.64062,45.015625 C1292.54687,44.3593717 1292.5,43.6875034 1292.5,43 C1292.5,42.3124966 1292.54687,41.6406283 1292.64062,40.984375 L1289.26562,40.984375 C1289.07812,41.8593794 1288.98438,42.5312477 1288.98438,43 C1288.98438,43.4687523 1289.07812,44.1406206 1289.26562,45.015625 L1289.26562,45.015625 Z M1297,35.03125 C1296.125,36.3125064 1295.48438,37.6406181 1295.07812,39.015625 L1298.92188,39.015625 C1298.51562,37.6406181 1297.875,36.3125064 1297,35.03125 L1297,35.03125 Z M1303.9375,39.015625 C1302.93749,37.2656163 1301.48438,36.0781281 1299.57812,35.453125 C1300.20313,36.5781306 1300.67187,37.7656188 1300.98438,39.015625 L1303.9375,39.015625 Z M1297,33.015625 C1299.75001,33.015625 1302.10155,33.9921777 1304.05469,35.9453125 C1306.00782,37.8984473 1306.98438,40.2499862 1306.98438,43 C1306.98438,45.7500138 1306.00782,48.1015527 1304.05469,50.0546875 C1302.10155,52.0078223 1299.75001,52.984375 1297,52.984375 C1294.24999,52.984375 1291.89845,52.0078223 1289.94531,50.0546875 C1287.99218,48.1015527 1287.01562,45.7500138 1287.01562,43 C1287.01562,40.2499862 1287.99218,37.8984473 1289.94531,35.9453125 C1291.89845,33.9921777 1294.24999,33.015625 1297,33.015625 L1297,33.015625 Z" transform="translate(-1287 -33)"/>
</svg>
